<svg viewBox="186.125 187.8346 139.837 92.05" width="96.8813" height="64.5348" xmlns="http://www.w3.org/2000/svg">
  <g transform="matrix(0.843, 0, 0, 0.843, 211.6837, 208.7855)">
    <rect x="2" y="3.219" width="60" height="30" fill="#81d4fa"/>
    <rect x="1.751" y="1.874" width="60" height="1.422" fill="#0288d1"/>
    <rect x="2.531" y="32.983" width="59.22" height="4.014" fill="#0288d1"/>
    <rect x="-0.189" y="36.216" width="58.081" height="25" fill="#81d4fa" transform="matrix(1, 0, -0.337727, 1, 15.551007, -0.321376)"/>
    <g>
      <g transform="matrix(1, 0, -0.419992, 1, 17.84964, 0)">
        <rect x="5" y="40" width="50" height="2" fill="#e1f5fe"/>
        <rect x="5" y="43" width="10" height="2" fill="#e1f5fe"/>
        <rect x="20" y="43" width="10" height="2" fill="#e1f5fe"/>
        <rect x="35" y="43" width="10" height="2" fill="#e1f5fe"/>
        <rect x="50" y="43" width="5" height="2" fill="#e1f5fe"/>
      </g>
    </g>
    <rect x="11.467" y="46.496" width="20" height="10" fill="#b3e5fc" transform="matrix(1, 0, -0.273866, 1, 17.057781, 3.219306)"/>
  </g>
  <g transform="matrix(0.843, 0, 0, 0.843, 282.7564, 213.4572)">
    <rect x="0" y="0" width="20" height="40" fill="#81d4fa"/>
    <rect x="1" y="1" width="18" height="38" fill="#0288d1"/>
    <circle cx="9.887" cy="2.045" r="0.955" fill="#ffffff"/>
  </g>
</svg>
