<?xml version="1.0" encoding="utf-8"?>
<svg viewBox="106.7316 114.8131 50.9441 80.0747" width="50.9441" height="80.0747" xmlns="http://www.w3.org/2000/svg">
  <g transform="matrix(0.9999999999999999, 0, 0, 0.9999999999999999, -54.265346527099595, 3.7706968784332275)">
    <g fill="#FF9900" transform="matrix(1, 0, 0, 1, 34.82098, 44.470383)">
      <ellipse cx="152.12" cy="91.572" rx="25" ry="10" transform="rotate(0 152.12 91.572)"/>
      <ellipse cx="152.12" cy="91.572" rx="25" ry="10" transform="rotate(45 152.12 91.572)"/>
      <ellipse cx="152.12" cy="91.572" rx="25" ry="10" transform="rotate(90 152.12 91.572)"/>
      <ellipse cx="152.12" cy="91.572" rx="25" ry="10" transform="rotate(135 152.12 91.572)"/>
      <ellipse cx="152.12" cy="91.572" rx="25" ry="10" transform="rotate(180 152.12 91.572)"/>
      <ellipse cx="152.12" cy="91.572" rx="25" ry="10" transform="rotate(225 152.12 91.572)"/>
      <ellipse cx="152.12" cy="91.572" rx="25" ry="10" transform="rotate(270 152.12 91.572)"/>
      <ellipse cx="152.12" cy="91.572" rx="25" ry="10" transform="rotate(315 152.12 91.572)"/>
    </g>
  </g>
  <rect x="132.903" y="151.101" width="8.91" height="35.767" fill="#228B22" transform="matrix(0.9848080277442931, 0.17364801466464994, -0.17364801466464994, 0.9848080277442931, 19.401918411254883, -13.76691722869873)" style=""/>
  <ellipse cx="149.17" cy="200" rx="10" ry="5" fill="#228B22" transform="matrix(0.9848080277442931, 0.17364801466464994, -0.17364801466464994, 0.9848080277442931, 5.273694038391117, -49.04789352416992)"/>
  <ellipse cx="159.17" cy="200" rx="10" ry="5" fill="#228B22" transform="matrix(0.9848080277442931, 0.17364801466464994, -0.17364801466464994, 0.9848080277442931, 11.388182640075687, -49.91107177734375)"/>
  <ellipse style="stroke: rgb(0, 0, 0); fill: rgba(255, 255, 6, 0.965);" cx="132.682" cy="139.363" rx="16.922" ry="17.019" transform="matrix(0.9999999999999999, 0, 0, 0.9999999999999999, 3.552713678800501e-15, 0)"/>
</svg>
