
<svg viewBox="44.5989 2.314 170.5459 175.5955" width="170.5459" height="175.5955" xmlns="http://www.w3.org/2000/svg">
  <path style="fill: rgb(0, 84, 166);" d="M 121.389 2.314 L 121.039 22.291 L 83.26 48.054 L 121.417 74.352 L 121.835 90.695 L 67.648 57.222 L 67.041 37.429 L 121.389 2.314 Z"/>
  <path style="fill: rgb(0, 84, 166); transform-origin: 160.241px 47.0165px;" d="M 187.192 91.207 L 186.842 71.23 L 149.063 45.467 L 187.22 19.169 L 187.638 2.826 L 133.451 36.299 L 132.844 56.092 L 187.192 91.207 Z" transform="matrix(-1, 0, 0, -1, 0.000030517578, 0.000007629395)"/>
  <path style="fill: rgb(0, 84, 166);" d="M 120.822 89.849 L 133.939 90.263 L 134.042 107.133 L 120.796 106.859 L 120.822 89.849 Z"/>
  <path style="fill: rgb(255, 164, 0);" d="M 125.313 12.358 L 107.707 45.562 L 127.24 86.367 L 146.246 46.507 L 130.181 12.278 L 129.87 39.557 L 132.397 46.269 L 127.729 54.604 C 127.729 54.604 122.918 45.499 122.801 45.499 C 122.684 45.499 125.477 40.024 125.477 40.024 L 125.313 12.358 Z"/>
  <text style="fill: rgb(0, 84, 166); font-family: 'Times New Roman'; font-size: 30px; letter-spacing: -1px; text-anchor: middle; white-space: pre;" transform="matrix(1, 0, 0, 1, 99.85604095458979, 25.7235107421875)"><tspan x="29.739" y="109.686">PERDANA</tspan><tspan x="29.739" dy="1.2em">​</tspan><tspan>UNIVERSITY</tspan></text>
</svg>
