<svg viewBox="116.774 23.544 220 240" width="180" height="200" xmlns="http://www.w3.org/2000/svg">
  <defs>
    <linearGradient gradientUnits="userSpaceOnUse" x1="299.696" y1="86.833" x2="299.696" y2="246.833" id="gradient-0" gradientTransform="matrix(0.999367, 0.035571, -0.025786, 0.724437, -65.382615, 28.548424)">
      <stop offset="0" stop-color="#FFFFFF"/>
      <stop offset="1" style="stop-color: rgb(237, 237, 237);"/>
    </linearGradient>
    <linearGradient id="metalGradient" x1="0%" y1="0%" x2="100%" y2="100%">
      <stop offset="0" stop-color="#E0E0E0"/>
      <stop offset="1" stop-color="#A9A9A9"/>
    </linearGradient>
    <radialGradient id="eyeReflection" cx="30%" cy="30%" r="50%">
      <stop offset="0" stop-color="white" stop-opacity="0.8"/>
      <stop offset="1" stop-color="transparent"/>
    </radialGradient>
  </defs>
  <circle cx="226.774" cy="126.344" r="80" stroke="#A9A9A9" stroke-width="3" style="fill: url('#gradient-0');"/>
  <rect x="136.774" y="96.344" width="20" height="60" fill="url(#metalGradient)" stroke="#A9A9A9" stroke-width="2"/>
  <rect x="296.774" y="96.344" width="20" height="60" fill="url(#metalGradient)" stroke="#A9A9A9" stroke-width="2"/>
  
  <!-- Left Eye Socket -->
  <ellipse cx="196.774" cy="126.344" rx="20" ry="15" fill="#ADD8E6"/>
  <!-- Right Eye Socket -->
  <ellipse cx="256.774" cy="126.344" rx="20" ry="15" fill="#ADD8E6"/>
  
  <!-- Left Eye Pupil (Black Center) -->
  <ellipse cx="196.774" cy="126.344" rx="5" ry="4" fill="black"/>
  <!-- Right Eye Pupil (Black Center) -->
  <ellipse cx="256.774" cy="126.344" rx="5" ry="4" fill="black"/>
  
  <!-- Left Eye Blue Strands -->
  <path d="M 191.774 126.344 A 10 8 0 0 1 201.774 126.344" fill="none" stroke="#0000FF" stroke-width="1" />
  <path d="M 194.774 122.344 A 10 8 0 0 1 198.774 130.344" fill="none" stroke="#0000FF" stroke-width="1" />
  
  <!-- Right Eye Blue Strands -->
  <path d="M 251.774 126.344 A 10 8 0 0 1 261.774 126.344" fill="none" stroke="#0000FF" stroke-width="1" />
  <path d="M 254.774 122.344 A 10 8 0 0 1 258.774 130.344" fill="none" stroke="#0000FF" stroke-width="1" />
  
  <!-- Eye Reflections -->
  <ellipse cx="192.774" cy="122.344" rx="2" ry="1.5" fill="url(#eyeReflection)"/>
  <ellipse cx="252.774" cy="122.344" rx="2" ry="1.5" fill="url(#eyeReflection)"/>

  <path d="M 209.353 167.553 C 222.456 180.887 235.56 180.887 248.663 167.553" fill="none" stroke="#8B4513" stroke-width="3"/>
  <ellipse cx="224.971" cy="195.028" rx="40" ry="10" fill="rgba(0, 0, 0, 0.1)"/>
  <ellipse style="fill: rgb(216, 216, 216); paint-order: fill; stroke: rgba(0, 0, 0, 0);" cx="227.874" cy="62.23" rx="44.747" ry="18.686"/>
  <path d="M 177.078 148.511 C 183.744 141.844 190.411 141.844 197.078 148.511" fill="none" stroke="#A9A9A9" stroke-width="2"/>
  <path d="M 257.078 148.511 C 263.744 141.844 270.411 141.844 277.078 148.511" fill="none" stroke="#A9A9A9" stroke-width="2"/>

  <!-- Neck -->
  <rect x="206.774" y="206.344" width="40" height="20" fill="#C0C0C0" stroke="#A9A9A9" stroke-width="2"/>

  <!-- Throat Wires -->
  <path d="M 216.774 206.344 V 226.344" stroke="#555555" stroke-width="2"/>
  <path d="M 226.774 206.344 V 226.344" stroke="#555555" stroke-width="2"/>
  <path d="M 236.774 206.344 V 226.344" stroke="#555555" stroke-width="2"/>
</svg>