<svg viewBox="84.6954 93.357 86.1267 111.8633" width="86.1267" height="111.8633" xmlns="http://www.w3.org/2000/svg">
  <defs>
    <linearGradient id="lineGradient" x1="0%" y1="0%" x2="100%" y2="100%">
      <stop offset="0%" style="stop-color:#5BA2E6;stop-opacity:1" />
      <stop offset="100%" style="stop-color:#186EC8;stop-opacity:1" />
    </linearGradient>
  </defs>

  <g transform="matrix(0.7071070075035094, 0.7071070075035094, -0.4497410058975219, 0.964473009109497, 114.89044189453125, 65.70962524414062)">
    <ellipse cx="50" cy="50" rx="45" ry="25" fill="none" stroke="url(#lineGradient)" stroke-width="3"/>
    <ellipse cx="50" cy="50" rx="30" ry="17" fill="none" stroke="url(#lineGradient)" stroke-width="2.5"/>
    <ellipse cx="50" cy="50" rx="15" ry="8" fill="none" stroke="url(#lineGradient)" stroke-width="2"/>
  </g>

  <g transform="matrix(0.4525390267372131, 0.4525390267372131, -0.7186799645423888, 0.7186799645423888, 167.65777587890625, 71.12247467041016)">
    <g style="transform-origin: 71px 30px;" transform="matrix(0, -1.174782, -0.784741, 0, -23.273645, 35.898743)">
      <line x1="60" y1="40" x2="80" y2="20" stroke="#186EC8" stroke-width="2.5" stroke-linecap="round"/>
      <path d="M80,20 L85,25 L75,25 Z" fill="none" stroke="#186EC8" stroke-width="2.5" stroke-linejoin="round"/>
      <path d="M60,40 L57,37 L63,37 Z" fill="none" stroke="#186EC8" stroke-width="2.5" stroke-linejoin="round"/>
    </g>
  </g>

  <line x1="155.89" y1="127.42" x2="160.89" y2="122.42" stroke="#186EC8" stroke-width="1.5" stroke-linecap="round"/>
  <line x1="150.89" y1="132.42" x2="155.89" y2="127.42" stroke="#186EC8" stroke-width="1.5" stroke-linecap="round"/>
</svg>
