<?xml version="1.0" encoding="utf-8"?>
<svg viewBox="137.428 103.1403 140.7478 219.9288" width="140.7478" height="219.9288" xmlns="http://www.w3.org/2000/svg">
  <defs>
    <linearGradient id="frontGradient" x1="0%" y1="0%" x2="100%" y2="100%">
      <stop offset="0" style="stop-color:#ffffff"/>
      <stop offset="0.2" style="stop-color:#f0f0f0"/>
      <stop offset="0.5" style="stop-color:#d0d0d0"/>
      <stop offset="0.8" style="stop-color:#a0a0a0"/>
      <stop offset="1" style="stop-color:#808080"/>
    </linearGradient>
    <linearGradient id="sideGradient" x1="0%" y1="0%" x2="100%" y2="0%">
      <stop offset="0" style="stop-color:#a0a0a0"/>
      <stop offset="0.5" style="stop-color:#707070"/>
      <stop offset="1" style="stop-color:#505050"/>
    </linearGradient>
  </defs>
  <path d="M -37.429 -61.261 C -6.637 -107.449 45.941 -86.317 57.212 -23.223 C 62.442 6.06 56.861 37.303 42.571 58.739 C 11.778 104.927 -40.8 83.795 -52.071 20.701 C -57.301 -8.582 -51.72 -39.825 -37.429 -61.261 Z M -17.429 -31.261 C -32.826 -8.167 -25.781 31.267 -4.75 39.72 C 5.011 43.643 15.425 39.457 22.571 28.739 C 37.967 5.645 30.922 -33.789 9.891 -42.242 C 0.13 -46.165 -10.284 -41.979 -17.429 -31.261 Z" fill="url(#frontGradient)" transform="matrix(0.917882108091638, 0.4788409471045697, -0.21729430152505141, 0.9761058824972205, 205.16853696686994, 213.10472574609625)"/>
  <path d="M -45.82 -29.925 C -45.82 -73.657 -2.622 -100.989 31.936 -79.123 C 47.975 -68.975 57.855 -50.221 57.855 -29.925 L 44.896 -39.393 C 44.896 -75.836 12.497 -98.613 -13.422 -80.392 C -25.45 -71.935 -32.861 -56.306 -32.861 -39.393 L -45.82 -29.925 Z" fill="#e0e0e0" transform="matrix(0.917882108091638, 0.4788409471045697, -0.21729430152505141, 0.9761058824972205, 205.16853696686994, 213.10472574609625)"/>
  <path d="M 184.649 177.309 L 175.438 158.751 C 214.087 178.914 222.242 263.395 190.116 310.818 C 175.206 332.827 154.972 340.621 137.035 331.263 L 151.731 325.177 C 188.54 344.379 225.261 294.769 217.83 235.879 C 214.381 208.549 201.732 186.222 184.649 177.309 Z" fill="url(#sideGradient)" transform="matrix(0.9999998950637977, -4.989341694794369e-7, -2.4821239075212276e-7, 1.000000147201263, 51.29665087331133, -33.70272892948594)"/>
</svg>