<?xml version="1.0" encoding="utf-8"?>
<svg viewBox="226.0693 184.1996 184.724 150.408" width="184.724" height="150.408" xmlns="http://www.w3.org/2000/svg">
  <path d="M100 150c-30 0-50-20-50-50s20-50 50-50 50 20 50 50-20 50-50 50z" fill="#4caf50" data-darkreader-inline-fill="" style="--darkreader-inline-fill: #3a853d;" transform="matrix(1, 0, 0, 1, 217.53784757852554, 134.19958877563477)"/>
  <path d="M120 70c-10-10-25-15-40-10s-25 15-30 25c-5 10 0 20 10 25s20 5 30 0 15-15 15-25c0-10-5-20-15-25z" fill="#4caf50" data-darkreader-inline-fill="" style="--darkreader-inline-fill: #3a853d;" transform="matrix(1, 0, 0, 1, 217.53784757852554, 134.19958877563477)"/>
  <path d="M80 70c10-10 25-15 40-10s25 15 30 25c5 10 0 20-10 25s-20 5-30 0-15-15-15-25c0-10 5-20 15-25z" fill="#4caf50" data-darkreader-inline-fill="" style="--darkreader-inline-fill: #3a853d;" transform="matrix(1, 0, 0, 1, 217.53784757852554, 134.19958877563477)"/>
  <path d="M 80.493 99.724 C 70.493 109.724 55.493 114.724 40.493 109.724 C 25.493 104.724 15.493 94.724 10.493 84.724 C 5.493 74.724 10.493 64.724 20.493 59.724 C 30.493 54.724 40.493 54.724 50.493 59.724 C 60.493 64.724 65.493 74.724 65.493 84.724 C 65.493 94.724 60.493 104.724 50.493 109.724 L 80.493 99.724 Z" fill="#4caf50" data-darkreader-inline-fill="" style="--darkreader-inline-fill: #3a853d;" transform="matrix(1, 0, 0, 1, 217.53784757852554, 134.19958877563477)"/>
  <path d="M 121.294 96.864 C 131.294 106.864 146.294 111.864 161.294 106.864 C 176.294 101.864 186.294 91.864 191.294 81.864 C 196.294 71.864 191.294 61.864 181.294 56.864 C 171.294 51.864 161.294 51.864 151.294 56.864 C 141.294 61.864 136.294 71.864 136.294 81.864 C 136.294 91.864 141.294 101.864 151.294 106.864 L 121.294 96.864 Z" fill="#4caf50" data-darkreader-inline-fill="" style="--darkreader-inline-fill: #3a853d;" transform="matrix(1, 0, 0, 1, 217.53784757852554, 134.19958877563477)"/>
  <path d="M100 150c-10 0-15 5-15 15s5 15 15 15 15-5 15-15-5-15-15-15z" fill="#8bc34a" data-darkreader-inline-fill="" style="--darkreader-inline-fill: #6b8c2f;" transform="matrix(1, 0, 0, 1, 217.53784757852554, 134.19958877563477)"/>
  <path d="M95 165c-5 0-10 5-10 10s5 10 10 10 10-5 10-10-5-10-10-10z" fill="#8bc34a" data-darkreader-inline-fill="" style="--darkreader-inline-fill: #6b8c2f;" transform="matrix(1, 0, 0, 1, 217.53784757852554, 134.19958877563477)"/>
  <path d="M105 165c5 0 10 5 10 10s-5 10-10 10-10-5-10-10 5-10 10-10z" fill="#8bc34a" data-darkreader-inline-fill="" style="--darkreader-inline-fill: #6b8c2f;" transform="matrix(1, 0, 0, 1, 217.53784757852554, 134.19958877563477)"/>
  <path d="M100 170c-5 0-10 5-10 10s5 10 10 10 10-5 10-10-5-10-10-10z" fill="#8bc34a" data-darkreader-inline-fill="" style="--darkreader-inline-fill: #6b8c2f;" transform="matrix(1, 0, 0, 1, 217.53784757852554, 134.19958877563477)"/>
  <path d="M 96.445 179.764 C 91.445 179.764 86.445 184.764 86.445 189.764 C 86.445 194.764 91.445 199.764 96.445 199.764 C 101.445 199.764 106.445 194.764 106.445 189.764 C 106.445 184.764 101.445 179.764 96.445 179.764 Z" fill="#8bc34a" data-darkreader-inline-fill="" style="--darkreader-inline-fill: #6b8c2f;" transform="matrix(1, 0, 0, 1, 217.53784757852554, 134.19958877563477)"/>
  <path d="M 103.649 180.408 C 108.649 180.408 113.649 185.408 113.649 190.408 C 113.649 195.408 108.649 200.408 103.649 200.408 C 98.649 200.408 93.649 195.408 93.649 190.408 C 93.649 185.408 98.649 180.408 103.649 180.408 Z" fill="#8bc34a" data-darkreader-inline-fill="" style="--darkreader-inline-fill: #6b8c2f;" transform="matrix(1, 0, 0, 1, 217.53784757852554, 134.19958877563477)"/>
  <circle cx="80" cy="60" r="4" fill="#388e3c" data-darkreader-inline-fill="" style="--darkreader-inline-fill: #71bf75;" transform="matrix(1, 0, 0, 1, 217.53784757852554, 134.19958877563477)"/>
  <circle cx="120" cy="60" r="4" fill="#388e3c" data-darkreader-inline-fill="" style="--darkreader-inline-fill: #71bf75;" transform="matrix(1, 0, 0, 1, 217.53784757852554, 134.19958877563477)"/>
  <circle cx="100" cy="55" r="4" fill="#388e3c" data-darkreader-inline-fill="" style="--darkreader-inline-fill: #71bf75;" transform="matrix(1, 0, 0, 1, 217.53784757852554, 134.19958877563477)"/>
  <circle cx="90" cy="75" r="4" fill="#388e3c" data-darkreader-inline-fill="" style="--darkreader-inline-fill: #71bf75;" transform="matrix(1, 0, 0, 1, 217.53784757852554, 134.19958877563477)"/>
  <circle cx="110" cy="75" r="4" fill="#388e3c" data-darkreader-inline-fill="" style="--darkreader-inline-fill: #71bf75;" transform="matrix(1, 0, 0, 1, 217.53784757852554, 134.19958877563477)"/>
  <circle cx="70" cy="90" r="4" fill="#388e3c" data-darkreader-inline-fill="" style="--darkreader-inline-fill: #71bf75;" transform="matrix(1, 0, 0, 1, 217.53784757852554, 134.19958877563477)"/>
  <circle cx="130" cy="90" r="4" fill="#388e3c" data-darkreader-inline-fill="" style="--darkreader-inline-fill: #71bf75;" transform="matrix(1, 0, 0, 1, 217.53784757852554, 134.19958877563477)"/>
</svg>
