<svg viewBox="226.0693 184.1996 184.724 150.408" width="184.724" height="150.408" xmlns="http://www.w3.org/2000/svg">
  <!-- Head -->
  <path d="M100 150c-30 0-50-20-50-50s20-50 50-50 50 20 50 50-20 50-50 50z" fill="#4caf50" transform="matrix(1, 0, 0, 1, 217.53784757852554, 134.19958877563477)"/>

  <!-- Ears -->
  <path d="M120 70c-10-10-25-15-40-10s-25 15-30 25c-5 10 0 20 10 25s20 5 30 0 15-15 15-25c0-10-5-20-15-25z" fill="#4caf50" transform="matrix(1, 0, 0, 1, 217.53784757852554, 134.19958877563477)"/>
  <path d="M80 70c10-10 25-15 40-10s25 15 30 25c5 10 0 20-10 25s-20 5-30 0-15-15-15-25c0-10 5-20 15-25z" fill="#4caf50" transform="matrix(1, 0, 0, 1, 217.53784757852554, 134.19958877563477)"/>

  <!-- Eyes -->
  <circle cx="90" cy="75" r="4" fill="#000" transform="matrix(1, 0, 0, 1, 217.53784757852554, 134.19958877563477)"/>
  <circle cx="110" cy="75" r="4" fill="#000" transform="matrix(1, 0, 0, 1, 217.53784757852554, 134.19958877563477)"/>

  <!-- Mouth -->
  <path d="M90 85c5 5 10 5 15 0" stroke="#000" stroke-width="1" fill="none" transform="matrix(1, 0, 0, 1, 217.53784757852554, 134.19958877563477)"/>

  <!-- Body -->
  <path d="M100 150c-10 0-15 5-15 15s5 15 15 15 15-5 15-15-5-15-15-15z" fill="#8bc34a" transform="matrix(1, 0, 0, 1, 217.53784757852554, 134.19958877563477)"/>

  <!-- Additional details -->
  <circle cx="80" cy="60" r="4" fill="#388e3c" transform="matrix(1, 0, 0, 1, 217.53784757852554, 134.19958877563477)"/>
  <circle cx="120" cy="60" r="4" fill="#388e3c" transform="matrix(1, 0, 0, 1, 217.53784757852554, 134.19958877563477)"/>
  <circle cx="100" cy="55" r="4" fill="#388e3c" transform="matrix(1, 0, 0, 1, 217.53784757852554, 134.19958877563477)"/>
  <circle cx="70" cy="90" r="4" fill="#388e3c" transform="matrix(1, 0, 0, 1, 217.53784757852554, 134.19958877563477)"/>
  <circle cx="130" cy="90" r="4" fill="#388e3c" transform="matrix(1, 0, 0, 1, 217.53784757852554, 134.19958877563477)"/>
</svg>
