<?xml version="1.0" encoding="utf-8"?>
<svg viewBox="0.345 -0.442 313.572 240.656" width="313.572" height="240.656" xmlns="http://www.w3.org/2000/svg">
  <defs>
    <linearGradient id="skyGradient" x1="0" y1="0" x2="0" y2="1">
      <stop offset="0" stop-color="#87CEEB" stop-opacity="1"/>
      <stop offset="1" stop-color="#f0f8ff" stop-opacity="1"/>
    </linearGradient>
    <linearGradient id="riverGradient" x1="0" y1="0" x2="1" y2="0">
      <stop offset="0" stop-color="#00BFFF" stop-opacity="1"/>
      <stop offset="1" stop-color="#1E90FF" stop-opacity="1"/>
    </linearGradient>
    <linearGradient id="grassGradient" x1="0" y1="0" x2="0" y2="1">
      <stop offset="0" stop-color="#32CD32" stop-opacity="1"/>
      <stop offset="1" stop-color="#228B22" stop-opacity="1"/>
    </linearGradient>
  </defs>
  <rect width="313.572" height="191.524" fill="url(#skyGradient)" x="0.345" y="-0.442" style=""/>
  <path d="M 0.345 192.083 C 70.027 181.388 139.71 181.388 209.393 192.083 C 279.075 202.779 313.917 202.779 313.917 192.083" fill="url(#riverGradient)" style=""/>
  <g transform="matrix(0.10887899994850159, 0, 0, 0.08356200158596039, 0.3450630009174489, -0.44263702630996704)" style="">
    <polygon points="480,2304 576,1728 672,2304" fill="#228B22"/>
    <polygon points="528,2016 576,1584 624,2016" fill="#006400"/>
    <rect x="556.8" y="2304" width="38.4" height="96" fill="#8B4513"/>
    <polygon points="1152,2304 1248,1584 1344,2304" fill="#228B22"/>
    <polygon points="1200,2016 1248,1440 1296,2016" fill="#006400"/>
    <rect x="1228.8" y="2304" width="38.4" height="96" fill="#8B4513"/>
    <polygon points="1920,2304 2016,1728 2112,2304" fill="#228B22"/>
    <polygon points="1968,2016 2016,1584 2064,2016" fill="#006400"/>
    <rect x="1996.8" y="2304" width="38.4" height="96" fill="#8B4513"/>
  </g>
  <rect y="192.083" width="313.572" height="48.131" fill="url(#grassGradient)" x="0.345" style=""/>
  <g id="smiling-sun-smiling-sun" transform="matrix(0.054204005748033524, 0, 0, 0.054204005748033524, 101.55293273925781, 3.635370969772339)" style="">
    <g id="smiling-sun-fill">
      <path id="smiling-sun-color" fill="#FFCA72" d="M815.0469,505c0,171.2129-138.834,310.0303-310.0127,310.0303&#10;&#9;&#9;&#9;c-171.1792,0-310.0469-138.8174-310.0469-310.0303c0-171.1963,138.8677-310.0474,310.0469-310.0474&#10;&#9;&#9;&#9;C676.2129,194.9526,815.0469,333.8037,815.0469,505z"/>
      <path fill="#FFFFFD" d="M625.7402,573.958c-19.3691,48.2275-66.3906,82.3916-121.5903,82.3916&#10;&#9;&#9;&#9;c-55.1494,0-102.1699-34.1641-121.5225-82.3916H625.7402z"/>
    </g>
    <g id="smiling-sun-line">
      <g>
        <path fill="#37474F" d="M505.0342,832.4434c-180.5659,0-327.461-146.8946-327.461-327.4434&#10;&#9;&#9;&#9;&#9;c0-180.5664,146.8951-327.4609,327.461-327.4609c180.5322,0,327.4267,146.8945,327.4267,327.4609&#10;&#9;&#9;&#9;&#9;C832.4609,685.5488,685.5664,832.4434,505.0342,832.4434L505.0342,832.4434z M505.0342,212.3667&#10;&#9;&#9;&#9;&#9;c-161.3584,0-292.6333,131.2749-292.6333,292.6333c0,161.3496,131.2749,292.6162,292.6333,292.6162&#10;&#9;&#9;&#9;&#9;c161.3496,0,292.5986-131.2666,292.5986-292.6162C797.6328,343.6416,666.3838,212.3667,505.0342,212.3667L505.0342,212.3667z"/>
      </g>
      <g>
        <g>
          <polygon fill="#37474F" points="1010,522.4141 914.6152,522.4141 914.6152,487.5859 1010,487.5859 1010,522.4141 &#9;&#9;&#9;&#9;"/>
        </g>
        <g>
          <polygon fill="#37474F" points="95.4019,522.4141 0,522.4141 0,487.5859 95.4019,487.5859 95.4019,522.4141 &#9;&#9;&#9;&#9;"/>
        </g>
        <g>
          <polygon fill="#37474F" points="524.3867,95.3677 489.5591,95.3677 489.5591,0 524.3867,0 524.3867,95.3677 &#9;&#9;&#9;&#9;"/>
        </g>
        <g>
          <polygon fill="#37474F" points="205.3857,244.4307 138.5879,177.5898 163.229,152.9658 230.0273,219.8066 205.3857,244.4307 &#10;&#9;&#9;&#9;&#9;&#9;&#9;&#9;&#9;&#9;"/>
        </g>
        <g>
          <polygon fill="#37474F" points="804.6738,244.4307 780.0498,219.8066 846.8145,152.9658 871.4727,177.5898 804.6738,244.4307 &#10;&#9;&#9;&#9;&#9;&#9;&#9;&#9;&#9;&#9;"/>
        </g>
        <g>
          <polygon fill="#37474F" points="524.3867,1010 489.5591,1010 489.5591,914.6152 524.3867,914.6152 524.3867,1010 &#9;&#9;&#9;&#9;"/>
        </g>
        <g>
          <polygon fill="#37474F" points="163.229,857.0166 138.5879,832.3926 205.3857,765.5605 230.0273,790.1846 163.229,857.0166 &#9;&#9;&#9;&#9;&#10;&#9;&#9;&#9;&#9;&#9;"/>
        </g>
        <g>
          <polygon fill="#37474F" points="846.8145,857.0166 780.0498,790.1846 804.6738,765.5605 871.4727,832.3926 846.8145,857.0166 &#10;&#9;&#9;&#9;&#9;&#9;&#9;&#9;&#9;&#9;"/>
        </g>
      </g>
      <g>
        <g>
          <path fill="#37474F" d="M661.7754,445.8882c-9.6084,0-17.4141-7.7969-17.4141-17.4136&#10;&#9;&#9;&#9;&#9;&#9;c0-12.4653-10.3564-22.6006-23.1103-22.6006c-12.7715,0-23.1612,10.1353-23.1612,22.6006c0,9.6167-7.789,17.4136-17.414,17.4136&#10;&#9;&#9;&#9;&#9;&#9;s-17.4141-7.7969-17.4141-17.4136c0-31.6645,26.0186-57.4282,57.9893-57.4282c31.9365,0,57.9385,25.7637,57.9385,57.4282&#10;&#9;&#9;&#9;&#9;&#9;C679.1895,438.0913,671.3828,445.8882,661.7754,445.8882L661.7754,445.8882z"/>
        </g>
        <g>
          <path fill="#37474F" d="M429.3418,445.8882c-9.6167,0-17.4136-7.7969-17.4136-17.4136&#10;&#9;&#9;&#9;&#9;&#9;c0-12.4653-10.3647-22.6006-23.1108-22.6006c-12.771,0-23.1616,10.1353-23.1616,22.6006&#10;&#9;&#9;&#9;&#9;&#9;c0,9.6167-7.7969,17.4136-17.4136,17.4136s-17.4141-7.7969-17.4141-17.4136c0-31.6645,26.0103-57.4282,57.9893-57.4282&#10;&#9;&#9;&#9;&#9;&#9;c31.9453,0,57.9385,25.7637,57.9385,57.4282C446.7559,438.0913,438.9585,445.8882,429.3418,445.8882L429.3418,445.8882z"/>
        </g>
        <g>
          <path fill="#37474F" d="M504.1499,673.7637c-60.8887,0-114.9326-36.6299-137.6865-93.3262&#10;&#9;&#9;&#9;&#9;&#9;c-2.1509-5.3574-1.4961-11.4453,1.7348-16.2246c3.2393-4.7949,8.6475-7.669,14.4292-7.669h243.1128&#10;&#9;&#9;&#9;&#9;&#9;c5.7823,0,11.1895,2.8741,14.4209,7.669c3.2481,4.7793,3.8936,10.8672,1.7344,16.2246&#10;&#9;&#9;&#9;&#9;&#9;C619.1426,637.1338,565.0645,673.7637,504.1499,673.7637L504.1499,673.7637z M411.8179,591.3711&#10;&#9;&#9;&#9;&#9;&#9;c20.9848,29.5391,54.979,47.5654,92.332,47.5654c37.3784,0,71.3892-18.0263,92.3911-47.5654H411.8179L411.8179,591.3711z"/>
        </g>
      </g>
    </g>
  </g>
  <g fill="#FFFFFF" opacity="0.8" transform="matrix(0.10887899994850159, 0, 0, 0.08356200158596039, 0.3450630009174489, -0.44263702630996704)" style="">
    <path d="M192,720 C576,528 960,528 1344,720 S2112,912 2496,720"/>
    <ellipse cx="1728" cy="720" rx="480" ry="144"/>
    <ellipse cx="768" cy="720" rx="480" ry="144"/>
  </g>
</svg>
