<?xml version="1.0" encoding="utf-8"?>
<svg viewBox="66 88 128 68" width="264" height="196" xmlns="http://www.w3.org/2000/svg">
  <defs>
    <linearGradient id="metallicGradient" x1="0" y1="0" x2="1" y2="1">
      <stop offset="0" stop-color="#d3d3d3"/>
      <stop offset="0.5" stop-color="#a9a9a9"/>
      <stop offset="1" stop-color="#d3d3d3"/>
    </linearGradient>
  </defs>
  <rect x="49.748" y="70" width="29.421" height="20" rx="4" ry="4" fill="url(#metallicGradient)" stroke="#000000" stroke-width="1" stroke-linejoin="round" transform="matrix(0, -1, 1, 0, 65.67598724365234, 206.95350646972656)"/>
  <path d="M 127.175 155.061 C 102.986 150.061 102.986 135.061 127.175 130.061 C 151.365 135.061 151.365 150.061 127.175 155.061 Z" fill="url(#metallicGradient)" stroke="#000000" stroke-width="1" stroke-linejoin="round" style="transform-origin: 127.175px 142.561px;" transform="matrix(0, -1, 1, 0, 0.000018119812, 0)"/>
  <path d="M 123.676 161.954 C 118.676 156.954 113.676 156.954 113.676 161.954 C 113.676 166.954 118.676 166.954 123.676 161.954 Z" fill="url(#metallicGradient)" stroke="#000000" stroke-width="1" stroke-linejoin="round" style="transform-origin: 118.676px 161.954px;" transform="matrix(0, -1, 1, 0, -0.000007629395, 0.000007629395)"/>
  <rect x="48" y="20" width="10" height="30" rx="5" ry="5" fill="url(#metallicGradient)" stroke="#000000" stroke-width="1" stroke-linejoin="round" transform="matrix(0, -1, 1, 0, 69.67598724365234, 206.95350646972656)"/>
  <rect x="58" y="25" width="10" height="25" rx="5" ry="5" fill="url(#metallicGradient)" stroke="#000000" stroke-width="1" stroke-linejoin="round" transform="matrix(0, -1, 1, 0, 69.67598724365234, 206.95350646972656)"/>
  <rect x="68" y="30" width="10" height="20" rx="5" ry="5" fill="url(#metallicGradient)" stroke="#000000" stroke-width="1" stroke-linejoin="round" transform="matrix(0, -1, 1, 0, 69.67598724365234, 206.95350646972656)"/>
  <rect x="78" y="35" width="8" height="15" rx="4" ry="4" fill="url(#metallicGradient)" stroke="#000000" stroke-width="1" stroke-linejoin="round" transform="matrix(0, -1, 1, 0, 69.67598724365234, 206.95350646972656)"/>
</svg>