
<svg viewBox="11.382 49.8372 198.78 68.7746" width="198.78" height="68.7746" xmlns="http://www.w3.org/2000/svg">
  <defs>
    <linearGradient id="scaleGradient" x1="0%" y1="0%" x2="100%" y2="100%">
      <stop offset="0" style="stop-color:#5BA2E6;stop-opacity:1"/>
      <stop offset="1" style="stop-color:#186EC8;stop-opacity:1"/>
    </linearGradient>
    <linearGradient id="glossy" x1="0%" y1="0%" x2="100%" y2="100%">
      <stop offset="0" style="stop-color:#CCEFFF;stop-opacity:1"/>
      <stop offset="0.5" style="stop-color:#99DFFF;stop-opacity:1"/>
      <stop offset="1" style="stop-color:#66CFFF;stop-opacity:1"/>
    </linearGradient>
    <linearGradient id="gradient-1" x1="0%" y1="0%" x2="100%" y2="100%">
      <stop offset="0" style="stop-color:#CCEFFF;stop-opacity:1"/>
      <stop offset="0.5" style="stop-color:#99DFFF;stop-opacity:1"/>
      <stop offset="1" style="stop-color:#66CFFF;stop-opacity:1"/>
    </linearGradient>
  </defs>
  <path d="M 11.382 51.375 L 54.276 101.336 L 210.162 98.204 L 161.382 51.375 L 11.382 51.375 Z" fill="url(#scaleGradient)" stroke="#186EC8" stroke-width="2"/>
  <path d="M 69.6 53.891 L 83.298 66.236 L 136.963 66.212 L 122.815 53.516 L 69.6 53.891 Z" fill="#F0F8FF" stroke="#186EC8" stroke-width="1"/>
  <circle cx="42.382" cy="78.375" r="3.193" fill="#186EC8"/>
  <circle cx="177.108" cy="73.252" r="2.266" fill="#186EC8"/>
  <g transform="matrix(-0.807074010372, 0.140733957291, 0.171784028411, 0.985135018826, -6.969027260626, -68.182522345364)" style="transform-origin: 126.677px 152.407px;">
    <path d="M 112.416 174.153 C 106.166 182.04 97.389 176.004 85.511 166.353 C 79.572 161.527 76.235 157.271 75.502 153.584 C 74.768 149.896 76.637 146.778 81.475 146.071 C 86.313 145.365 93.231 147.606 98.941 152.535 C 104.65 157.462 94.955 157.318 99.78 161.175 C 103.196 163.905 107.595 168.69 112.416 174.153 Z" fill="url(#glossy)" style=""/>
    <ellipse cx="50" cy="110" rx="1.649" ry="2.1" fill="url(#glossy)" transform="matrix(0.684312, -0.729189, 1.032237, 0.361391, -79.61801, 149.242769)" style=""/>
    <ellipse cx="80" cy="95" rx="2" ry="2.47" fill="url(#glossy)" transform="matrix(0.791233, -0.611515, 0.961327, 0.520876, -84.648648, 148.361797)" style=""/>
    <ellipse cx="94.216" cy="58.402" rx="2.482" ry="2.772" fill="url(#glossy)" style="" transform="matrix(0.868653, -0.495421, 0.8325, 0.676406, -56.906813, 151.680913)"/>
    <ellipse cx="140" cy="95" rx="3.119" ry="3.396" fill="url(#glossy)" transform="matrix(0.924052, -0.382266, 0.647639, 0.814272, -111.134106, 117.365073)" style=""/>
    <ellipse cx="170" cy="110" rx="3.793" ry="4.161" fill="url(#glossy)" transform="matrix(0.96252, -0.27121, 0.417204, 0.921383, -122.0312, 83.479458)" style=""/>
    <path d="M 182.952 142.996 C 176.702 135.109 167.925 141.145 156.047 150.796 C 150.108 155.622 146.771 159.878 146.038 163.565 C 145.304 167.253 147.173 170.371 152.011 171.078 C 156.849 171.784 163.767 169.543 169.477 164.614 C 175.186 159.687 165.491 159.831 170.316 155.974 C 173.732 153.244 178.131 148.459 182.952 142.996 Z" fill="url(#gradient-1)" style="transform-box: fill-box; transform-origin: 50% 50%;" transform="matrix(-0.856943, 0.515411, -0.515411, -0.856943, 0.000007, -0.000005)"/>
    <ellipse cx="50" cy="110" rx="1.649" ry="2.1" fill="url(#gradient-1)" transform="matrix(-0.962249, -0.272172, -0.698304, 0.841717, 306.592247, 55.045106)" style=""/>
    <ellipse cx="80" cy="95" rx="2" ry="2.47" fill="url(#gradient-1)" transform="matrix(-0.993223, -0.116224, -0.555337, 0.941839, 310.449196, 51.697293)" style=""/>
    <ellipse cx="94.216" cy="58.402" rx="2.482" ry="2.772" fill="url(#gradient-1)" style="" transform="matrix(-0.999732, 0.023166, -0.364778, 1.008721, 288.386686, 68.840003)"/>
    <ellipse cx="140" cy="95" rx="3.119" ry="3.396" fill="url(#gradient-1)" transform="matrix(-0.988884, 0.148686, -0.135305, 1.031585, 317.169798, 11.484036)" style=""/>
    <ellipse cx="170" cy="110" rx="3.793" ry="4.161" fill="url(#gradient-1)" transform="matrix(-0.96461, 0.263682, 0.117371, 1.004605, 309.042799, -23.170666)" style=""/>
  </g>
  <text style="fill: rgb(74, 149, 222); font-family: Arial, sans-serif; font-size: 28px; white-space: pre;" x="93.317" y="135.141" transform="matrix(0.6650490164756775, -0.005106000229716301, 0.5093179941177368, 0.3957100212574005, -21.155025482177734, 10.319136619567871)">kg</text>
</svg>
