
<svg viewBox="212.33 123.782 160 43.4937" width="160" height="43.4937" xmlns="http://www.w3.org/2000/svg">
  <defs>
    <linearGradient id="nailGradient" x1="0%" y1="0%" x2="100%" y2="100%">
      <stop offset="0" style="stop-color:#FF9999;stop-opacity:1"/>
      <stop offset="1" style="stop-color:#FF6666;stop-opacity:1"/>
    </linearGradient>
    <linearGradient id="gradient-1" x1="100%" y1="0%" x2="0%" y2="100%">
      <stop offset="0" style="stop-color:#FF9999;stop-opacity:1"/>
      <stop offset="1" style="stop-color:#FF6666;stop-opacity:1"/>
    </linearGradient>
  </defs>
  <rect x="212.33" y="123.782" width="160" height="42.824" fill="#6ea9d7" rx="5" ry="5" style=""/>
  <ellipse cx="292.349" cy="134.162" rx="18.668" ry="10" fill="#ffffff"/>
  <text style="fill: rgb(110, 169, 215); font-family: Arial; font-size: 8px; white-space: pre;" x="287.437" y="137.556">kg</text>
  <path d="M 230.478 144.006 C 231.631 142.68 232.836 130.247 234.533 130.017 C 237.495 129.613 238.813 144.743 236.24 142.316 C 234.721 140.884 246.719 117.28 243.79 136.992 C 243.536 138.703 245.947 128.928 247.583 128.322 C 248.612 127.941 250.755 128.391 251.643 128.363 C 253.882 128.294 250.069 135.498 252.795 137.508 C 253.439 137.983 252.666 139.099 252.698 137.538 C 252.725 136.175 253.593 123.651 255.031 127.429 C 255.708 129.207 258.418 126.88 258.975 127.356 C 260.527 128.677 254.683 140.896 261.482 137.482 C 261.28 125.799 261.198 122.52 269.098 129.129 C 269.647 129.586 269.258 130.82 269.14 132.191 C 269.052 133.234 269.057 134.226 269.587 134.693 C 270.277 135.303 268.923 142.713 269.053 146.837 C 267.573 151.009 259.836 169.33 263.34 167.086 L 231.306 166.715 L 230.478 144.006 Z" fill="#e8c39e" style=""/>
  <path d="M 236.789 131.405 L 236.789 138.331" stroke="#d3a887" stroke-width="0.5" style=""/>
  <path d="M 243.714 131.405 L 243.714 138.331" stroke="#d3a887" stroke-width="0.5" style=""/>
  <path d="M 250.639 131.405 L 250.639 138.331" stroke="#d3a887" stroke-width="0.5" style=""/>
  <path d="M 257.564 131.405 L 257.564 138.331" stroke="#d3a887" stroke-width="0.5" style=""/>
  <path d="M 233.326 129.674 C 235.057 128.519 236.789 128.519 238.52 129.674 L 237.654 132.271 C 236.499 132.848 235.345 132.848 234.192 132.271 L 233.326 129.674 Z" fill="url(#nailGradient)" style=""/>
  <path d="M 240.251 128.808 C 241.983 127.654 243.714 127.654 245.445 128.808 L 244.58 131.405 C 243.425 131.982 242.27 131.982 241.117 131.405 L 240.251 128.808 Z" fill="url(#nailGradient)" style=""/>
  <path d="M 247.176 127.943 C 248.908 126.788 250.639 126.788 252.37 127.943 L 251.505 130.54 C 250.35 131.116 249.195 131.116 248.042 130.54 L 247.176 127.943 Z" fill="url(#nailGradient)" style=""/>
  <path d="M 254.102 127.077 C 255.833 125.922 257.564 125.922 259.296 127.077 L 258.43 129.674 C 257.275 130.251 256.12 130.251 254.967 129.674 L 254.102 127.077 Z" fill="url(#nailGradient)" style=""/>
  <path d="M 261.027 127.943 C 262.758 126.788 264.49 126.788 266.221 127.943 L 265.355 130.54 C 264.2 131.116 263.046 131.116 261.893 130.54 L 261.027 127.943 Z" fill="url(#nailGradient)" style=""/>
  <path d="M 234.192 130.02 L 235.923 129.155" stroke="white" stroke-width="0.5" opacity="0.6" style=""/>
  <path d="M 241.117 129.155 L 242.848 128.289" stroke="white" stroke-width="0.5" opacity="0.6" style=""/>
  <path d="M 248.042 128.289 L 249.773 127.423" stroke="white" stroke-width="0.5" opacity="0.6" style=""/>
  <path d="M 254.967 127.423 L 256.699 126.558" stroke="white" stroke-width="0.5" opacity="0.6" style=""/>
  <path d="M 261.893 128.289 L 263.624 127.423" stroke="white" stroke-width="0.5" opacity="0.6" style=""/>
  <g transform="matrix(-1.5912339687347412, 0, 0, 1.7139840126037598, 720.229248046875, -170.8208465576172)" style="">
    <path d="M 231.573 183.673 C 232.239 182.907 232.935 175.726 233.915 175.593 C 235.626 175.36 236.387 184.099 234.901 182.697 C 234.024 181.87 240.954 168.236 239.262 179.622 C 239.115 180.61 240.508 174.964 241.453 174.614 C 242.047 174.394 243.285 174.654 243.798 174.638 C 245.091 174.598 242.889 178.759 244.463 179.92 C 244.835 180.194 244.389 180.839 244.407 179.937 C 244.423 179.15 244.924 171.916 245.755 174.098 C 246.146 175.125 247.711 173.781 248.033 174.056 C 248.929 174.819 245.554 181.877 249.481 179.905 C 249.364 173.157 249.317 171.263 253.88 175.08 C 254.197 175.344 253.972 176.057 253.904 176.849 C 253.853 177.451 253.856 178.024 254.162 178.294 C 254.561 178.646 253.779 182.926 253.854 185.308 C 252.999 187.718 248.53 198.3 250.554 197.004 L 232.051 196.79 L 231.573 183.673 Z" fill="#e8c39e"/>
    <path d="M 235.218 176.395 L 235.218 180.395" stroke="#d3a887" stroke-width="0.5"/>
    <path d="M 239.218 176.395 L 239.218 180.395" stroke="#d3a887" stroke-width="0.5"/>
    <path d="M 243.218 176.395 L 243.218 180.395" stroke="#d3a887" stroke-width="0.5"/>
    <path d="M 247.218 176.395 L 247.218 180.395" stroke="#d3a887" stroke-width="0.5"/>
    <path d="M 233.218 175.395 C 234.218 174.728 235.218 174.728 236.218 175.395 L 235.718 176.895 C 235.051 177.228 234.384 177.228 233.718 176.895 L 233.218 175.395 Z" fill="url(#gradient-1)"/>
    <path d="M 237.218 174.895 C 238.218 174.228 239.218 174.228 240.218 174.895 L 239.718 176.395 C 239.051 176.728 238.384 176.728 237.718 176.395 L 237.218 174.895 Z" fill="url(#gradient-1)"/>
    <path d="M 241.218 174.395 C 242.218 173.728 243.218 173.728 244.218 174.395 L 243.718 175.895 C 243.051 176.228 242.384 176.228 241.718 175.895 L 241.218 174.395 Z" fill="url(#gradient-1)"/>
    <path d="M 245.218 173.895 C 246.218 173.228 247.218 173.228 248.218 173.895 L 247.718 175.395 C 247.051 175.728 246.384 175.728 245.718 175.395 L 245.218 173.895 Z" fill="url(#gradient-1)"/>
    <path d="M 249.218 174.395 C 250.218 173.728 251.218 173.728 252.218 174.395 L 251.718 175.895 C 251.051 176.228 250.384 176.228 249.718 175.895 L 249.218 174.395 Z" fill="url(#gradient-1)"/>
    <path d="M 234.718 175.595 L 233.718 175.095" stroke="white" stroke-width="0.5" opacity="0.6"/>
    <path d="M 238.718 175.095 L 237.718 174.595" stroke="white" stroke-width="0.5" opacity="0.6"/>
    <path d="M 242.718 174.595 L 241.718 174.095" stroke="white" stroke-width="0.5" opacity="0.6"/>
    <path d="M 246.718 174.095 L 245.718 173.595" stroke="white" stroke-width="0.5" opacity="0.6"/>
    <path d="M 250.718 174.595 L 249.718 174.095" stroke="white" stroke-width="0.5" opacity="0.6"/>
  </g>
</svg>
