
<svg viewBox="222.282 243.6982 160 55.3591" width="160" height="55.3591" xmlns="http://www.w3.org/2000/svg">
  <defs>
    <linearGradient id="glossy" x1="0%" y1="0%" x2="100%" y2="100%">
      <stop offset="0" style="stop-color:#CCEFFF;stop-opacity:1"/>
      <stop offset="0.5" style="stop-color:#99DFFF;stop-opacity:1"/>
      <stop offset="1" style="stop-color:#66CFFF;stop-opacity:1"/>
    </linearGradient>
    <linearGradient id="gradient-2" x1="0%" y1="0%" x2="100%" y2="100%">
      <stop offset="0" style="stop-color:#CCEFFF;stop-opacity:1"/>
      <stop offset="0.5" style="stop-color:#99DFFF;stop-opacity:1"/>
      <stop offset="1" style="stop-color:#66CFFF;stop-opacity:1"/>
    </linearGradient>
  </defs>
  <rect x="222.282" y="251.552" width="160" height="42.824" rx="5" ry="5" style="fill: rgb(96, 165, 250);"/>
  <ellipse cx="302.301" cy="261.932" rx="18.668" ry="10" fill="#ffffff"/>
  <text style="fill: rgb(110, 169, 215); font-family: Arial; font-size: 8px; white-space: pre;" x="297.389" y="265.326">KG</text>
  <g transform="matrix(-0.726019918919, 0.126599982381, 0.132768005133, 0.761387884617, 175.790420007873, 118.970729768738)" style="transform-origin: 126.677px 152.407px;">
    <path d="M 112.416 174.153 C 106.166 182.04 97.389 176.004 85.511 166.353 C 79.572 161.527 76.235 157.271 75.502 153.584 C 74.768 149.896 76.637 146.778 81.475 146.071 C 86.313 145.365 93.231 147.606 98.941 152.535 C 104.65 157.462 94.955 157.318 99.78 161.175 C 103.196 163.905 107.595 168.69 112.416 174.153 Z" fill="url(#glossy)" style=""/>
    <ellipse cx="50" cy="110" rx="1.649" ry="2.1" fill="url(#glossy)" transform="matrix(0.684312, -0.729189, 1.032237, 0.361391, -79.61801, 149.242769)" style=""/>
    <ellipse cx="80" cy="95" rx="2" ry="2.47" fill="url(#glossy)" transform="matrix(0.791233, -0.611515, 0.961327, 0.520876, -84.648648, 148.361797)" style=""/>
    <ellipse cx="94.216" cy="58.402" rx="2.482" ry="2.772" fill="url(#glossy)" style="" transform="matrix(0.868653, -0.495421, 0.8325, 0.676406, -56.906813, 151.680913)"/>
    <ellipse cx="140" cy="95" rx="3.119" ry="3.396" fill="url(#glossy)" transform="matrix(0.924052, -0.382266, 0.647639, 0.814272, -111.134106, 117.365073)" style=""/>
    <ellipse cx="170" cy="110" rx="3.793" ry="4.161" fill="url(#glossy)" transform="matrix(0.96252, -0.27121, 0.417204, 0.921383, -122.0312, 83.479458)" style=""/>
    <path d="M 182.952 142.996 C 176.702 135.109 167.925 141.145 156.047 150.796 C 150.108 155.622 146.771 159.878 146.038 163.565 C 145.304 167.253 147.173 170.371 152.011 171.078 C 156.849 171.784 163.767 169.543 169.477 164.614 C 175.186 159.687 165.491 159.831 170.316 155.974 C 173.732 153.244 178.131 148.459 182.952 142.996 Z" fill="url(#gradient-2)" style="transform-box: fill-box; transform-origin: 50% 50%;" transform="matrix(-0.856943, 0.515411, -0.515411, -0.856943, 0.000007, -0.000005)"/>
    <ellipse cx="50" cy="110" rx="1.649" ry="2.1" fill="url(#gradient-2)" transform="matrix(-0.962249, -0.272172, -0.698304, 0.841717, 306.592247, 55.045106)" style=""/>
    <ellipse cx="80" cy="95" rx="2" ry="2.47" fill="url(#gradient-2)" transform="matrix(-0.993223, -0.116224, -0.555337, 0.941839, 310.449196, 51.697293)" style=""/>
    <ellipse cx="94.216" cy="58.402" rx="2.482" ry="2.772" fill="url(#gradient-2)" style="" transform="matrix(-0.999732, 0.023166, -0.364778, 1.008721, 288.386686, 68.840003)"/>
    <ellipse cx="140" cy="95" rx="3.119" ry="3.396" fill="url(#gradient-2)" transform="matrix(-0.988884, 0.148686, -0.135305, 1.031585, 317.169798, 11.484036)" style=""/>
    <ellipse cx="170" cy="110" rx="3.793" ry="4.161" fill="url(#gradient-2)" transform="matrix(-0.96461, 0.263682, 0.117371, 1.004605, 309.042799, -23.170666)" style=""/>
  </g>
</svg>
