<svg viewBox="51.942 80.065 110 213.537" width="135" height="192.183" xmlns="http://www.w3.org/2000/svg">
  <defs>
    <radialGradient id="metallicGradient" cx="50%" cy="50%" r="50%">
      <stop offset="0" style="stop-color: #fff; stop-opacity: 0.7"/>
      <stop offset="1" style="stop-color: #FFD700; stop-opacity: 1"/>
    </radialGradient>
  </defs>
  <path d="M 74.22 85.065 C 86.502 96.743 123.346 96.743 135.627 85.065" fill="none" stroke="red" stroke-width="10" style="" transform="matrix(1, 0, 0, 1, 0, 8.881784197001252e-16)"/>
  <path d="M 135.285 164.927 C 127.808 194.927 99.508 148.912 106.984 178.912 L 137.055 178.912 C 144.531 148.912 146.824 119.248 139.347 89.248" fill="red" style="" transform="matrix(1, 0, 0, 1, 0, 8.881784197001252e-16)"/>
  <path d="M 95.209 103.529 C 88.117 73.529 61.272 119.544 68.364 89.544 L 96.887 89.544 C 103.979 119.544 111.053 148.533 103.961 178.533" fill="red" style="transform-origin: 87.0422px 134.038px;" transform="matrix(-1, 0, 0, -1, 0, 0)"/>
  <circle cx="106.942" cy="228.602" r="50" fill="url(#metallicGradient)" style="stroke-width: 8px; stroke: rgb(233, 162, 14);" transform="matrix(1, 0, 0, 1, 0, 8.881784197001252e-16)"/>
</svg>